<svg xmlns="http://www.w3.org/2000/svg" viewBox="0 0 24 24" fill="#0A66C2" aria-hidden="true">
  <path d="M20.452 20.452h-3.554v-5.569c0-1.329-.024-3.037-1.852-3.037-1.853 0-2.136 1.447-2.136 2.943v5.663H9.356V9h3.414v1.561h.049c.476-.9 1.637-1.852 3.37-1.852 3.603 0 4.268 2.371 4.268 5.455v6.288zM5.337 7.433a2.063 2.063 0 1 1 0-4.126 2.063 2.063 0 0 1 0 4.126zM7.114 20.452H3.56V9h3.554v11.452zM22.225 0H1.771C.792 0 0 .774 0 1.729v20.542C0 23.226.792 24 1.771 24h20.451C23.2 24 24 23.226 24 22.271V1.729C24 .774 23.2 0 22.222 0h.003z"/>
</svg>
